<?xml version="1.0" encoding="UTF-8" standalone="no"?>
<!-- Created with Inkscape (http://www.inkscape.org/) -->

<svg
   version="1.1"
   id="svg1"
   width="200.76401"
   height="194.27733"
   viewBox="0 0 200.76401 194.27733"
   sodipodi:docname="logo.pdf"
   xmlns:inkscape="http://www.inkscape.org/namespaces/inkscape"
   xmlns:sodipodi="http://sodipodi.sourceforge.net/DTD/sodipodi-0.dtd"
   xmlns="http://www.w3.org/2000/svg"
   xmlns:svg="http://www.w3.org/2000/svg">
  <defs
     id="defs1" />
  <sodipodi:namedview
     id="namedview1"
     pagecolor="#ffffff"
     bordercolor="#000000"
     borderopacity="0.25"
     inkscape:showpageshadow="2"
     inkscape:pageopacity="0.0"
     inkscape:pagecheckerboard="0"
     inkscape:deskcolor="#d1d1d1">
    <inkscape:page
       x="0"
       y="0"
       inkscape:label="1"
       id="page1"
       width="200.76401"
       height="194.27733"
       margin="0"
       bleed="0" />
  </sodipodi:namedview>
  <g
     id="g1"
     inkscape:groupmode="layer"
     inkscape:label="1">
    <path
       id="path1"
       d="m 34.01617,45.3549 c 0,18.78684 -15.22934,34.01618 -34.01617,34.01618 -18.78683,0 -34.01617,-15.22934 -34.01617,-34.01618 0,-18.78685 15.22934,-34.01617 34.01617,-34.01617 18.78683,0 34.01617,15.22932 34.01617,34.01617 z"
       style="fill:#389826;fill-opacity:1;fill-rule:nonzero;stroke:none"
       transform="matrix(1.3333333,0,0,-1.3333333,100.38133,108.484)" />
    <path
       id="path2"
       d="m 73.29477,-22.67744 c 0,18.78684 -15.22933,34.01617 -34.01617,34.01617 -18.78686,0 -34.01618,-15.22933 -34.01618,-34.01617 0,-18.78684 15.22932,-34.01618 34.01618,-34.01618 18.78684,0 34.01617,15.22934 34.01617,34.01618 z"
       style="fill:#9558b2;fill-opacity:1;fill-rule:nonzero;stroke:none"
       transform="matrix(1.3333333,0,0,-1.3333333,100.38133,108.484)" />
    <path
       id="path3"
       d="m -5.26242,-22.67744 c 0,18.78684 -15.22932,34.01617 -34.01618,34.01617 -18.78684,0 -34.01617,-15.22933 -34.01617,-34.01617 0,-18.78684 15.22933,-34.01618 34.01617,-34.01618 18.78686,0 34.01618,15.22934 34.01618,34.01618 z"
       style="fill:#cb3c33;fill-opacity:1;fill-rule:nonzero;stroke:none"
       transform="matrix(1.3333333,0,0,-1.3333333,100.38133,108.484)" />
    <path
       id="path4"
       d="M 56.69363,0 C 56.69363,31.31142 31.31142,56.69363 0,56.69363 -31.31142,56.69363 -56.69363,31.31142 -56.69363,0 c 0,-31.31142 25.38221,-56.69363 56.69363,-56.69363 31.31142,0 56.69363,25.38221 56.69363,56.69363 z"
       style="fill:none;stroke:#000000;stroke-width:1;stroke-linecap:butt;stroke-linejoin:miter;stroke-miterlimit:10;stroke-dasharray:none;stroke-opacity:1"
       transform="matrix(1.3333333,0,0,-1.3333333,100.38133,108.484)" />
    <path
       id="path5"
       d="m -56.55435,3.95425 c 1.05025,13.34795 4.71826,23.21425 12.26088,31.9142"
       style="fill:none;stroke:#000000;stroke-width:2.83466;stroke-linecap:butt;stroke-linejoin:miter;stroke-miterlimit:10;stroke-dasharray:none;stroke-opacity:1"
       transform="matrix(1.3333333,0,0,-1.3333333,100.38133,108.484)" />
    <path
       id="path6"
       d="M 8.48373,0 C 7.4419,0.26779 2.86227,1.78528 0,3.43665 v -6.8733 C 2.86227,-1.78528 7.4419,-0.26779 8.48373,0 Z"
       style="fill:#000000;fill-opacity:1;fill-rule:nonzero;stroke:#000000;stroke-width:2.83466;stroke-linecap:butt;stroke-linejoin:miter;stroke-miterlimit:10;stroke-dasharray:none;stroke-opacity:1"
       transform="matrix(0.96954667,-0.9152,-0.9152,-0.96954667,40.998747,61.22692)" />
    <path
       id="path7"
       d="M 31.70157,47.00044 C 42.69102,39.44775 49.41948,31.30353 53.19511,20.4336"
       style="fill:none;stroke:#000000;stroke-width:2.83466;stroke-linecap:butt;stroke-linejoin:miter;stroke-miterlimit:10;stroke-dasharray:none;stroke-opacity:1"
       transform="matrix(1.3333333,0,0,-1.3333333,100.38133,108.484)" />
    <path
       id="path8"
       d="M 8.48373,0 C 7.4419,0.26779 2.86227,1.78528 0,3.43665 v -6.8733 C 2.86227,-1.78528 7.4419,-0.26779 8.48373,0 Z"
       style="fill:#000000;fill-opacity:1;fill-rule:nonzero;stroke:#000000;stroke-width:2.83466;stroke-linecap:butt;stroke-linejoin:miter;stroke-miterlimit:10;stroke-dasharray:none;stroke-opacity:1"
       transform="matrix(0.30898667,1.29696,1.29696,-0.30898667,170.98189,80.691707)" />
    <path
       id="path9"
       d="M 24.8519,-50.9547 C 12.77077,-56.71722 2.38956,-58.47379 -8.91583,-56.29256"
       style="fill:none;stroke:#000000;stroke-width:2.83466;stroke-linecap:butt;stroke-linejoin:miter;stroke-miterlimit:10;stroke-dasharray:none;stroke-opacity:1"
       transform="matrix(1.3333333,0,0,-1.3333333,100.38133,108.484)" />
    <path
       id="path10"
       d="M 8.48373,0 C 7.4419,0.26779 2.86227,1.78528 0,3.43665 v -6.8733 C 2.86227,-1.78528 7.4419,-0.26779 8.48373,0 Z"
       style="fill:#000000;fill-opacity:1;fill-rule:nonzero;stroke:#000000;stroke-width:2.83466;stroke-linecap:butt;stroke-linejoin:miter;stroke-miterlimit:10;stroke-dasharray:none;stroke-opacity:1"
       transform="matrix(-1.27736,-0.38196,-0.38196,1.27736,89.150213,183.53859)" />
    <path
       id="path11"
       d="m 34.01617,45.3549 c 0,18.78684 -15.22934,34.01618 -34.01617,34.01618 -18.78683,0 -34.01617,-15.22934 -34.01617,-34.01618 0,-18.78685 15.22934,-34.01617 34.01617,-34.01617 18.78683,0 34.01617,15.22932 34.01617,34.01617 z"
       style="fill:#389826;fill-opacity:1;fill-rule:nonzero;stroke:none"
       transform="matrix(1.3333333,0,0,-1.3333333,100.38133,108.484)" />
    <path
       id="path12"
       d="m 73.29477,-22.67744 c 0,18.78684 -15.22933,34.01617 -34.01617,34.01617 -18.78686,0 -34.01618,-15.22933 -34.01618,-34.01617 0,-18.78684 15.22932,-34.01618 34.01618,-34.01618 18.78684,0 34.01617,15.22934 34.01617,34.01618 z"
       style="fill:#9558b2;fill-opacity:1;fill-rule:nonzero;stroke:none"
       transform="matrix(1.3333333,0,0,-1.3333333,100.38133,108.484)" />
    <path
       id="path13"
       d="m -5.26242,-22.67744 c 0,18.78684 -15.22932,34.01617 -34.01618,34.01617 -18.78684,0 -34.01617,-15.22933 -34.01617,-34.01617 0,-18.78684 15.22933,-34.01618 34.01617,-34.01618 18.78686,0 34.01618,15.22934 34.01618,34.01618 z"
       style="fill:#cb3c33;fill-opacity:1;fill-rule:nonzero;stroke:none"
       transform="matrix(1.3333333,0,0,-1.3333333,100.38133,108.484)" />
    <path
       id="path14"
       d="m 7.08669,56.69363 c 0,3.91391 -3.17278,7.08669 -7.08669,7.08669 -3.91391,0 -7.08669,-3.17278 -7.08669,-7.08669 0,-3.91392 3.17278,-7.0867 7.08669,-7.0867 3.91391,0 7.08669,3.17278 7.08669,7.0867 z"
       style="fill:#000000;fill-opacity:1;fill-rule:nonzero;stroke:none"
       transform="matrix(1.3333333,0,0,-1.3333333,100.38133,108.484)" />
    <path
       id="path15"
       d="m 56.18494,-28.3468 c 0,3.91391 -3.17278,7.08668 -7.08669,7.08668 -3.91392,0 -7.0867,-3.17277 -7.0867,-7.08668 0,-3.91391 3.17278,-7.08669 7.0867,-7.08669 3.91391,0 7.08669,3.17278 7.08669,7.08669 z"
       style="fill:#000000;fill-opacity:1;fill-rule:nonzero;stroke:none"
       transform="matrix(1.3333333,0,0,-1.3333333,100.38133,108.484)" />
    <path
       id="path16"
       d="m -42.01155,-28.3468 c 0,3.91391 -3.17278,7.08668 -7.0867,7.08668 -3.91391,0 -7.08669,-3.17277 -7.08669,-7.08668 0,-3.91391 3.17278,-7.08669 7.08669,-7.08669 3.91392,0 7.0867,3.17278 7.0867,7.08669 z"
       style="fill:#000000;fill-opacity:1;fill-rule:nonzero;stroke:none"
       transform="matrix(1.3333333,0,0,-1.3333333,100.38133,108.484)" />
  </g>
</svg>
